<?xml version="1.0" encoding="UTF-8"?>
<svg xmlns="http://www.w3.org/2000/svg" version="1.1" width="400" height="400" style="background-color:transparent;">
<path d="M0 0 C132 0 264 0 400 0 C400 132 400 264 400 400 C268 400 136 400 0 400 C0 268 0 136 0 0 Z " fill="none" transform="translate(0,0)"/>
<path d="M0 0 C7.56053658 2.74928603 10.7605543 12.37447719 14.328125 19.00390625 C16.7838434 23.40469133 19.4617613 27.66017724 22.125 31.9375 C23.67609554 34.47095605 25.14583444 37.01535291 26.5625 39.625 C28.85263672 43.83639236 31.42222574 47.83374029 34.05859375 51.8359375 C36.30557279 55.49801601 38.33008105 59.25537765 40.3737793 63.03369141 C43.04835 67.91224328 45.87043344 72.70277567 48.6875 77.5 C49.93124952 79.62484787 51.17473631 81.74984955 52.41796875 83.875 C53.3313501 85.43541016 53.3313501 85.43541016 54.26318359 87.02734375 C56.68805275 91.17763991 59.09559708 95.33782431 61.5 99.5 C65.64851375 106.67730613 69.82011061 113.84092379 74 121 C78.17989041 128.15907796 82.35115211 135.32288593 86.5 142.5 C90.75711506 149.86217373 95.03018749 157.21495327 99.3125 164.5625 C99.88742187 165.54992187 100.46234375 166.53734375 101.0546875 167.5546875 C101.61027344 168.50730469 102.16585937 169.45992187 102.73828125 170.44140625 C103.27807617 171.36735596 103.81787109 172.29330566 104.37402344 173.24731445 C106.47092667 176.79725199 108.63320917 180.30591419 110.81274414 183.80566406 C112.77476011 187.43194403 113.13603811 189.85083777 113 194 C111.67693314 198.04225335 110.10052341 200.31901258 106.45920563 202.57220554 C102.17172251 204.34187329 98.74148216 204.42149084 94.15661621 204.38768005 C92.83833084 204.39575836 92.83833084 204.39575836 91.49341345 204.40399987 C88.55471045 204.41828337 85.61645764 204.41117474 82.67773438 204.40405273 C80.56838112 204.40975604 78.45903096 204.41672014 76.34968567 204.42485046 C70.62456961 204.44279998 64.89960666 204.44161024 59.1744709 204.43590808 C54.39543791 204.43281924 49.61643447 204.43890519 44.83740568 204.44494683 C33.56459315 204.45899595 22.29185639 204.45742713 11.01904297 204.44604492 C-0.61331621 204.43455929 -12.24544495 204.4486461 -23.87777376 204.4754414 C-33.86433427 204.49758492 -43.85082236 204.50423892 -53.83740568 204.49836498 C-59.80228919 204.49499148 -65.76702493 204.49743687 -71.73188782 204.51461601 C-77.33964504 204.5300618 -82.94706025 204.52615569 -88.55480385 204.50731087 C-90.61313625 204.50361865 -92.67149387 204.5067518 -94.72980309 204.51719666 C-97.53913695 204.53036459 -100.34733157 204.51889626 -103.15661621 204.50120544 C-103.97160033 204.51081045 -104.78658444 204.52041546 -105.62626505 204.53031152 C-110.86465435 204.46241309 -113.83067442 203.44867023 -118 200 C-120.31822034 196.52948779 -120.78737631 193.24318201 -120.6796875 189.12109375 C-119.26277892 182.61471471 -115.10399806 177.09039689 -111.57861328 171.52978516 C-108.71374786 166.93873419 -106.02556338 162.24426762 -103.3125 157.5625 C-102.11082394 155.50121646 -100.9089983 153.44002012 -99.70703125 151.37890625 C-95.31844873 143.83621149 -90.96240636 136.27483906 -86.60668945 128.71313477 C-81.85438734 120.46774003 -77.06529621 112.24439223 -72.26293945 104.02807617 C-68.04432601 96.80486001 -63.86028254 89.56227135 -59.6875 82.3125 C-53.98330388 72.40458523 -48.2216311 62.53192042 -42.42788696 52.67623901 C-38.53719826 46.05717112 -34.66076455 39.43083049 -30.8359375 32.7734375 C-30.49979431 32.18866638 -30.16365112 31.60389526 -29.81732178 31.00140381 C-28.23571944 28.24854365 -26.65749071 25.49382506 -25.08398438 22.73632812 C-22.23240404 17.76309415 -19.33039274 12.82449094 -16.3203125 7.9453125 C-15.50844482 6.62684326 -15.50844482 6.62684326 -14.68017578 5.28173828 C-10.55140011 -0.32528546 -6.59678826 -0.82903982 0 0 Z " fill="#2772CC" transform="translate(204,81)"/>
<path d="M0 0 C4.20179074 1.25820376 8.07672257 2.94019292 12.05102539 4.78417969 C13.31858673 5.36173508 13.31858673 5.36173508 14.61175537 5.95095825 C17.36404363 7.20662339 20.11174895 8.47200452 22.85961914 9.73730469 C24.77030914 10.61065446 26.68136353 11.48320743 28.59277344 12.35498047 C32.40492059 14.09408431 36.21574672 15.83603125 40.02563477 17.58007812 C46.8709392 20.71021172 53.73743364 23.79168177 60.60961914 26.86230469 C62.90781161 27.89091615 65.20598887 28.91956158 67.50415039 29.94824219 C68.61870605 30.44678711 69.73326172 30.94533203 70.8815918 31.45898438 C78.06765183 34.67447657 85.25056874 37.8969874 92.43408203 41.11816406 C98.42373234 43.80369388 104.41417101 46.48743108 110.40649414 49.16699219 C161.59582962 72.06582381 161.59582962 72.06582381 184.29711914 82.98730469 C183.34654396 85.57978246 182.71593178 86.75781336 180.26028347 88.10340309 C176.35217474 89.26917831 172.61380763 89.27002817 168.57398987 89.25473022 C167.69598738 89.25926134 166.81798489 89.26379245 165.91337627 89.26846087 C162.97165697 89.28112011 160.03012244 89.27948352 157.08837891 89.27783203 C154.97917441 89.28381625 152.86997212 89.29062155 150.76077271 89.29818726 C145.0314981 89.31586344 139.30228322 89.32054327 133.57298398 89.32181883 C128.79152066 89.32371751 124.01007127 89.33107454 119.22861332 89.33816302 C107.94960222 89.35445008 96.67062306 89.35933161 85.39160156 89.35791016 C73.75188833 89.35670805 62.11236032 89.37782308 50.47269398 89.40939748 C40.48191503 89.43553447 30.49119668 89.44627856 20.50038379 89.44499934 C14.53212184 89.44448903 8.56402453 89.45021075 2.59579659 89.47135544 C-3.01603646 89.49069477 -8.62754703 89.49089167 -14.23939133 89.47632217 C-16.2993409 89.47422776 -18.35931043 89.47897245 -20.41922569 89.49104309 C-23.2307873 89.50645169 -26.04123086 89.49721645 -28.85276794 89.48178101 C-29.66843418 89.49206813 -30.48410042 89.50235526 -31.32448381 89.51295412 C-36.56597833 89.4493363 -39.53139075 88.4390324 -43.70288086 84.98730469 C-46.02110119 81.51679248 -46.49025717 78.23048669 -46.38256836 74.10839844 C-44.96565978 67.6020194 -40.80687892 62.07770158 -37.28149414 56.51708984 C-34.41661726 51.92602053 -31.72890661 47.23132339 -29.01538086 42.54980469 C-28.43336914 41.55352051 -27.85135742 40.55723633 -27.25170898 39.53076172 C-24.00694913 33.9754727 -20.79393415 28.40351438 -17.61303711 22.81152344 C-16.59750203 21.03163604 -15.58155232 19.25198588 -14.56552124 17.47238159 C-13.59787749 15.77243458 -12.6372408 14.0685051 -11.67675781 12.36450195 C-11.08467529 11.32737061 -10.49259277 10.29023926 -9.88256836 9.22167969 C-9.3642041 8.30612305 -8.84583984 7.39056641 -8.31176758 6.44726562 C-4.08252516 -0.01917544 -4.08252516 -0.01917544 0 0 Z " fill="#2359B6" transform="translate(129.702880859375,196.0126953125)"/>
<path d="M0 0 C7.56053658 2.74928603 10.7605543 12.37447719 14.328125 19.00390625 C16.7838434 23.40469133 19.4617613 27.66017724 22.125 31.9375 C23.67609554 34.47095605 25.14583444 37.01535291 26.5625 39.625 C28.38380322 42.97424216 30.3667105 46.17386688 32.4375 49.375 C35.35631582 53.90485053 37.97774666 58.52749104 40.51171875 63.28125 C42.51240167 66.93604084 44.69311407 70.46973408 46.8984375 74.00390625 C48 76 48 76 48 78 C40.04783967 80.42559484 32.05670626 82.71056991 24.06051636 84.98544312 C14.2754402 87.76928088 4.49108863 90.55493097 -5.2734375 93.41015625 C-5.9265239 93.6010936 -6.57961029 93.79203094 -7.25248718 93.98875427 C-8.54885101 94.36782984 -9.84521233 94.74691401 -11.14157104 95.12600708 C-22.32800737 98.39583379 -33.53888903 101.5450686 -44.80493164 104.5300293 C-49.95785618 105.8980731 -55.09414473 107.30265037 -60.2109375 108.80078125 C-61.18853027 109.08671143 -62.16612305 109.3726416 -63.17333984 109.66723633 C-65.0115205 110.20878359 -66.84790705 110.75647143 -68.68212891 111.3112793 C-74.78193379 113.1090331 -74.78193379 113.1090331 -77 112 C-76.65445068 111.40912598 -76.30890137 110.81825195 -75.95288086 110.20947266 C-69.07910775 98.45131705 -62.23061288 86.67994815 -55.4375 74.875 C-50.32725484 65.99761642 -45.15806571 57.15847256 -39.92700195 48.35180664 C-34.96376522 39.97972418 -30.11084732 31.5448722 -25.28710938 23.09179688 C-22.36270285 17.99093851 -19.39212264 12.92211122 -16.3046875 7.91796875 C-15.76569824 7.04293701 -15.22670898 6.16790527 -14.67138672 5.26635742 C-10.54460595 -0.32945121 -6.58593885 -0.82767634 0 0 Z " fill="#7CBCF3" transform="translate(204,81)"/>
</svg>