<svg id="logosandtypes_com" data-name="logosandtypes com" xmlns="http://www.w3.org/2000/svg" viewBox="0 0 150 150"><defs><style>.cls-1{fill:none;}.cls-2{fill:#ff5200;}</style></defs><rect width="150" height="150" fill="#ffffff"/><g id="Layer_2" data-name="Layer 2"><path id="Layer_3" data-name="Layer 3" class="cls-1" d="M0,.2H150v150H0Z" transform="translate(0 -0.2)"/></g><path d="M111.41,18.57H38c-13.83,0-23.33,9.51-23.33,23.33v67.4c0,13.82,9.5,23.33,23.33,23.33h73.44c13.82,0,23.33-9.51,23.33-23.33v-19H107.09L95,111H53.52L32.78,75.6,53.52,40.17H95l12.1,20.74h27.65v-19C134.74,28.08,125.23,18.57,111.41,18.57Z" transform="translate(0 -0.2)"/><polygon class="cls-2" points="63.89 55.53 52.66 75.4 63.89 94.41 86.35 94.41 97.58 75.4 86.35 55.53 63.89 55.53"/></svg>
