<?xml version="1.0" encoding="UTF-8"?>
<svg version="1.1" xmlns="http://www.w3.org/2000/svg" width="512" height="512">
<path d="M0 0 C0.66402832 0.16628906 1.32805664 0.33257812 2.01220703 0.50390625 C33.26952143 8.65208379 60.10388537 29.39945916 76.48828125 57.11328125 C92.10131241 84.71200851 96.51355572 117.12823996 89 148 C88.67 148.99 88.34 149.98 88 151 C88.91628929 150.9800145 88.91628929 150.9800145 89.85108948 150.95962524 C96.2264392 150.82657022 102.60139267 150.73625928 108.9777832 150.67041016 C111.3552249 150.64029341 113.732556 150.59939068 116.10961914 150.54736328 C119.53299279 150.47432749 122.9548939 150.44049113 126.37890625 150.4140625 C127.43646622 150.38309479 128.49402618 150.35212708 129.58363342 150.32022095 C135.70064339 150.31745021 139.22601669 151.0019437 143.68199158 155.31747437 C146.98356218 159.53214939 147.25221638 162.81588299 147.26069641 168.1602478 C147.26452196 168.88222088 147.26834751 169.60419395 147.27228898 170.34804499 C147.28260939 172.76774855 147.27862868 175.18721439 147.2746582 177.60693359 C147.27900524 179.34161092 147.28418836 181.07628632 147.29014587 182.81095886 C147.3035488 187.52380607 147.30411305 192.23657315 147.30158257 196.94943571 C147.30051362 200.88335207 147.30539435 204.81725216 147.310188 208.75116503 C147.32128791 218.03236456 147.32171803 227.31352361 147.31567383 236.59472656 C147.30963424 246.16958356 147.32194356 255.74429361 147.3432439 265.31912553 C147.36085806 273.53919899 147.3668615 281.75922567 147.36360615 289.97931731 C147.36179267 294.88898629 147.36443586 299.79855046 147.37832069 304.70820236 C147.39089119 309.32603642 147.38896229 313.94364142 147.37590981 318.56147194 C147.37354268 320.25536616 147.37628358 321.94927645 147.38453293 323.64315224 C147.39499095 325.95762895 147.38690784 328.27133576 147.3742218 330.58578491 C147.37447341 332.52758416 147.37447341 332.52758416 147.37473011 334.50861168 C146.82832674 339.59949252 145.24797936 342.84561909 141.5 346.3125 C137.73099957 348.85657529 134.93431607 349.12588207 130.49388409 349.13142776 C129.34209059 349.13526891 128.1902971 349.13911005 127.00360078 349.1430676 C125.73241908 349.14220112 124.46123739 349.14133463 123.15153503 349.14044189 C121.79203705 349.14302498 120.43253982 349.14603799 119.07304364 349.1494453 C115.32888221 349.15752512 111.58473993 349.15930541 107.84057081 349.16004276 C103.80570101 349.1618916 99.77084121 349.16943806 95.73597717 349.17617798 C86.90958854 349.18976861 78.08320444 349.1957871 69.25680709 349.20018864 C63.74751613 349.20294972 58.23822692 349.20718682 52.72893715 349.21169281 C37.48079507 349.22388623 22.23265441 349.23418553 6.98450756 349.2375679 C5.52021209 349.23789725 5.52021209 349.23789725 4.0263349 349.23823325 C3.04777912 349.23845153 2.06922334 349.23866981 1.06101435 349.2388947 C-0.92197025 349.23933817 -2.90495485 349.23978473 -4.88793945 349.24023438 C-5.87157196 349.2404558 -6.85520447 349.24067723 -7.86864402 349.24090537 C-23.81087526 349.2448543 -39.75306081 349.26231087 -55.69527439 349.2855939 C-72.0557197 349.30929525 -88.41614207 349.32176919 -104.77660483 349.32293582 C-113.96531549 349.32385324 -123.15396662 349.32962253 -132.3426609 349.34775543 C-140.16631664 349.36313998 -147.98989445 349.36828662 -155.81356243 349.36001733 C-159.80618568 349.35610503 -163.79865193 349.3570686 -167.79125595 349.37107468 C-171.44612748 349.38377889 -175.10072349 349.38264695 -178.75559445 349.37048396 C-180.70453076 349.36759073 -182.65347167 349.37948906 -184.60237056 349.39190602 C-195.27279554 349.33126837 -195.27279554 349.33126837 -200 346 C-204.5678762 341.06175546 -205.12537532 337.56326733 -205.14717102 330.96000671 C-205.15084771 330.23888807 -205.1545244 329.51776942 -205.1583125 328.77479869 C-205.16934885 326.35205589 -205.17319307 323.92935598 -205.17700195 321.5065918 C-205.18326658 319.77206282 -205.18991337 318.03753519 -205.19691467 316.30300903 C-205.21432281 311.58599677 -205.22487566 306.86899465 -205.2331202 302.15195823 C-205.23827016 299.20556509 -205.24434585 296.25917511 -205.25063133 293.31278419 C-205.26968185 284.0959819 -205.28391398 274.87918763 -205.2922433 265.66236943 C-205.30201993 255.01956032 -205.32835116 244.37695896 -205.36874419 233.73422307 C-205.3988885 225.50993124 -205.41371052 217.28569903 -205.41702431 209.06135303 C-205.41937646 204.14826259 -205.42835852 199.23539413 -205.45348549 194.3223629 C-205.47674214 189.70040734 -205.48100917 185.07882031 -205.47072411 180.45682144 C-205.47022807 178.76130384 -205.47656849 177.06576824 -205.49028015 175.37030602 C-205.5079679 173.05341002 -205.50090949 170.73784113 -205.48774719 168.42094421 C-205.49013555 167.12511256 -205.4925239 165.82928091 -205.49498463 164.49418163 C-204.77471444 159.40967051 -202.25296244 156.44663896 -198.96411133 152.64941406 C-194.3134961 150.06152538 -189.80421941 150.50826453 -184.57421875 150.609375 C-183.47149124 150.61503479 -182.36876373 150.62069458 -181.23262024 150.62652588 C-177.71713508 150.6488825 -174.20267613 150.69907979 -170.6875 150.75 C-168.30144703 150.77006582 -165.91537806 150.78831645 -163.52929688 150.8046875 C-157.6858489 150.84874499 -151.84299777 150.91565082 -146 151 C-146.20496094 150.2265625 -146.40992188 149.453125 -146.62109375 148.65625 C-154.88175049 116.72031389 -149.86235874 83.24176498 -133.17333984 54.90283203 C-115.06203989 25.53132311 -87.14452444 6.95153204 -54.0546875 -0.97265625 C-36.44167204 -4.81386093 -17.46135127 -4.39889236 0 0 Z " fill="#B6B7CB" transform="translate(285,76)"/>
<path d="M0 0 C0.66402832 0.16628906 1.32805664 0.33257812 2.01220703 0.50390625 C33.26952143 8.65208379 60.10388537 29.39945916 76.48828125 57.11328125 C92.89225415 86.11013455 96.28112225 119.29619807 88.12109375 151.46484375 C82.89074578 169.86954101 73.04529138 187.02290209 60 201 C59.34 201 58.68 201 58 201 C57.78601563 201.55429687 57.57203125 202.10859375 57.3515625 202.6796875 C55.54598794 205.77943111 53.09487353 207.85425762 50.375 210.125 C49.80378418 210.60291992 49.23256836 211.08083984 48.64404297 211.57324219 C21.92366955 233.37200878 -8.81614278 241.15569742 -43 239 C-68.02287467 236.40365771 -88.87377373 226.0698112 -108 210 C-108.79277344 209.34257812 -109.58554688 208.68515625 -110.40234375 208.0078125 C-114.57291173 204.47492363 -114.57291173 204.47492363 -116 203 C-116 202.34 -116 201.68 -116 201 C-116.58394531 200.75636719 -117.16789062 200.51273438 -117.76953125 200.26171875 C-133.90858738 191.13227019 -142.6758316 162.72465281 -147.39697266 146.18896484 C-155.55044457 116.59219189 -149.24001261 83.26936407 -134.35546875 56.91015625 C-117.82576081 28.84174265 -91.3322617 8.89618175 -60.02832031 0.52001953 C-40.42682213 -4.50540068 -19.67778896 -4.95726099 0 0 Z " fill="#3B80EE" transform="translate(285,76)"/>
<path d="M0 0 C1.05997192 -0.00845947 2.11994385 -0.01691895 3.21203613 -0.02563477 C4.37473022 -0.01956207 5.53742432 -0.01348938 6.73535156 -0.00723267 C7.95992065 -0.01248962 9.18448975 -0.01774658 10.44616699 -0.02316284 C13.80578243 -0.03411571 17.1648447 -0.03153262 20.52442932 -0.02202559 C24.03842926 -0.0144359 27.55240539 -0.02147267 31.06640625 -0.02618408 C36.96781666 -0.03164367 42.86911449 -0.02444477 48.77050781 -0.01016235 C55.59556984 0.00616465 62.42036303 0.00087627 69.24541855 -0.01564157 C75.1028257 -0.02925073 80.96015188 -0.03117892 86.81756973 -0.02332556 C90.31702329 -0.01864587 93.81635044 -0.01803221 97.3157959 -0.02793503 C101.21617096 -0.03820121 105.11624432 -0.02397653 109.01660156 -0.00723267 C110.17929565 -0.01330536 111.34198975 -0.01937805 112.53991699 -0.02563477 C114.12987488 -0.01294556 114.12987488 -0.01294556 115.75195312 0 C117.13571136 0.00169662 117.13571136 0.00169662 118.54742432 0.00342751 C121.33178288 0.45484988 122.22324121 1.12791368 123.87597656 3.38095093 C124.52548296 7.66298377 124.3390999 11.99276537 124.31347656 16.31845093 C124.33345703 17.51147827 124.3534375 18.70450562 124.37402344 19.9336853 C124.37305664 21.65361694 124.37305664 21.65361694 124.37207031 23.40829468 C124.37392334 24.45751099 124.37577637 25.50672729 124.37768555 26.58773804 C123.74087039 30.13314058 122.64761907 31.13439383 119.87597656 33.38095093 C117.45840454 33.88431549 117.45840454 33.88431549 114.71435547 33.8888855 C113.14974579 33.90580444 113.14974579 33.90580444 111.55352783 33.92306519 C110.41470154 33.91496826 109.27587524 33.90687134 108.10253906 33.89852905 C106.89893738 33.90553833 105.69533569 33.91254761 104.45526123 33.91976929 C101.15746065 33.93435784 97.86066394 33.9309397 94.56291962 33.91825294 C91.11078041 33.90812056 87.65868388 33.91751927 84.20654297 33.92379761 C78.40942693 33.93107337 72.61251477 33.92148838 66.81542969 33.9024353 C60.11469242 33.88066644 53.41444198 33.88771788 46.71371651 33.90974092 C40.95901385 33.92789715 35.20445769 33.93045224 29.44973564 33.91998625 C26.01338598 33.91375244 22.5772651 33.91291228 19.14093018 33.9261322 C15.31023253 33.93984006 11.4800795 33.92083726 7.64941406 33.89852905 C6.51058777 33.90662598 5.37176147 33.9147229 4.19842529 33.92306519 C3.15535217 33.91178589 2.11227905 33.90050659 1.03759766 33.8888855 C0.13206146 33.8873774 -0.77347473 33.88586929 -1.70645142 33.88431549 C-4.90623506 33.21808603 -6.11170221 31.90446123 -8.12402344 29.38095093 C-8.62573242 26.58773804 -8.62573242 26.58773804 -8.62011719 23.40829468 C-8.62076172 22.26167358 -8.62140625 21.11505249 -8.62207031 19.9336853 C-8.60208984 18.74065796 -8.58210937 17.54763062 -8.56152344 16.31845093 C-8.5721582 14.52310913 -8.5721582 14.52310913 -8.58300781 12.6914978 C-8.51883202 3.91916078 -8.51883202 3.91916078 -6.91902161 1.73827171 C-4.5119061 -0.08191283 -3.00318519 0.00368218 0 0 Z " fill="#FEFEFE" transform="translate(198.1240234375,369.6190490722656)"/>
<path d="M0 0 C1.17260376 0.27046143 1.17260376 0.27046143 2.36889648 0.54638672 C3.9690959 0.91724561 5.56879483 1.29027111 7.16796875 1.66552734 C9.19983861 2.13283993 11.24015772 2.56305369 13.28125 2.98828125 C45.46576212 10.12161324 83.22191789 27.88406419 101.5703125 56.515625 C107.33498748 66.1625245 113.01799246 76.64297315 112.99609375 88.18359375 C112.01702354 91.69592253 109.29579467 93.19338029 106.3828125 95.15625 C104.4375 96.1875 104.4375 96.1875 102.4375 96.1875 C102.30214844 95.33929688 102.16679687 94.49109375 102.02734375 93.6171875 C99.59149657 80.34400825 94.2922025 69.46778952 85.4375 59.1875 C84.69306641 58.2284375 84.69306641 58.2284375 83.93359375 57.25 C74.60107043 45.64866775 61.51389087 37.87277774 48.4375 31.1875 C47.76348145 30.84090332 47.08946289 30.49430664 46.39501953 30.13720703 C26.29803042 19.93294044 4.37813677 13.02984108 -17.67626953 8.53051758 C-21.23161444 7.79086089 -24.42322576 7.05788124 -27.5625 5.1875 C-27.3125 3.33203125 -27.3125 3.33203125 -26.5625 1.1875 C-24.8125 -0.11328125 -24.8125 -0.11328125 -22.5625 -1.125 C-21.840625 -1.47175781 -21.11875 -1.81851563 -20.375 -2.17578125 C-13.71456821 -3.683629 -6.53826468 -1.51652126 0 0 Z " fill="#F3F7FE" transform="translate(207.5625,148.8125)"/>
<path d="M0 0 C5.55576434 3.90300205 10.53240998 8.31747951 15.4375 13 C16.37529297 13.82564453 16.37529297 13.82564453 17.33203125 14.66796875 C27.28942855 23.77123264 35.6832185 39.108557 36.72265625 52.72265625 C36.12050925 57.53158364 33.71556077 61.78282868 31.4375 66 C30.7775 65.67 30.1175 65.34 29.4375 65 C28.98046875 63.13671875 28.98046875 63.13671875 28.625 60.6875 C24.92456268 40.70513847 11.43429614 24.73666401 -4.5625 13 C-19.47729965 2.85793624 -35.54865113 -4.20247273 -52.5625 -10 C-53.2534375 -10.23847656 -53.944375 -10.47695312 -54.65625 -10.72265625 C-63.49352205 -13.74320822 -72.34707684 -15.95450354 -81.53320312 -17.65698242 C-83.5553528 -18.04489898 -85.5613959 -18.51507636 -87.5625 -19 C-87.8925 -19.66 -88.2225 -20.32 -88.5625 -21 C-60.11689386 -30.40720833 -24.09298248 -15.45761503 0 0 Z " fill="#F3F7FE" transform="translate(298.5625,160)"/>
<path d="M0 0 C1.04481285 -0.00430527 1.04481285 -0.00430527 2.11073303 -0.00869751 C3.58253798 -0.01073701 5.0543701 -0.00521502 6.52612305 0.00732422 C8.77389506 0.02335718 11.01986259 0.00748618 13.26757812 -0.01171875 C14.69922271 -0.00973582 16.13086617 -0.00589111 17.5625 0 C18.8630835 0.00338379 20.16366699 0.00676758 21.50366211 0.01025391 C25.05245279 0.42221106 26.53952492 0.67974919 28.84765625 3.3984375 C29.34936523 6.16992188 29.34936523 6.16992188 29.34375 9.4921875 C29.34439453 10.68714844 29.34503906 11.88210938 29.34570312 13.11328125 C29.32572266 14.36238281 29.30574219 15.61148437 29.28515625 16.8984375 C29.29224609 18.14753906 29.29933594 19.39664062 29.30664062 20.68359375 C29.24336032 29.70833831 29.24336032 29.70833831 27.78344727 32.25439453 C24.80472033 34.0148075 21.80357156 33.82617079 18.44140625 33.796875 C17.72029663 33.79974518 16.99918701 33.80261536 16.25622559 33.80557251 C14.7331463 33.80761202 13.21004075 33.80208997 11.68701172 33.78955078 C9.35584947 33.77349393 7.02642083 33.7894016 4.6953125 33.80859375 C3.21483992 33.8066113 1.73436843 33.80276757 0.25390625 33.796875 C-0.44303345 33.80294769 -1.13997314 33.80902039 -1.85803223 33.8152771 C-4.61153278 33.77526569 -6.69072425 33.67094304 -9.09033203 32.25439453 C-10.63140699 29.5612332 -10.54124108 27.39570201 -10.55078125 24.3046875 C-10.55464844 23.10972656 -10.55851563 21.91476562 -10.5625 20.68359375 C-10.55089844 19.43449219 -10.53929687 18.18539063 -10.52734375 16.8984375 C-10.53894531 15.64933594 -10.55054688 14.40023438 -10.5625 13.11328125 C-10.55863281 11.91832031 -10.55476562 10.72335937 -10.55078125 9.4921875 C-10.54739746 8.39583984 -10.54401367 7.29949219 -10.54052734 6.16992188 C-10.15234375 3.3984375 -10.15234375 3.3984375 -9.07446289 1.54248047 C-6.08749098 -0.23536157 -3.44763719 0.00897767 0 0 Z " fill="#FDFDFD" transform="translate(156.15234375,319.6015625)"/>
<path d="M0 0 C1.00939636 -0.00218285 1.00939636 -0.00218285 2.03918457 -0.00440979 C3.4579706 -0.00275425 4.87677523 0.00876872 6.29541016 0.02954102 C8.46204217 0.05850408 10.62622624 0.05014426 12.79296875 0.03710938 C14.17449101 0.04334733 15.55600557 0.05173873 16.9375 0.0625 C18.81598633 0.0771228 18.81598633 0.0771228 20.73242188 0.09204102 C24.21619963 0.52698762 25.68430367 0.83528673 27.96875 3.49609375 C28.47045898 6.26757812 28.47045898 6.26757812 28.46484375 9.58984375 C28.46548828 10.78480469 28.46613281 11.97976563 28.46679688 13.2109375 C28.44681641 14.46003906 28.42683594 15.70914062 28.40625 16.99609375 C28.41333984 18.24519531 28.42042969 19.49429687 28.42773438 20.78125 C28.36445407 29.80599456 28.36445407 29.80599456 26.90454102 32.35205078 C23.92581408 34.11246375 20.92466531 33.92382704 17.5625 33.89453125 C16.84139038 33.89740143 16.12028076 33.90027161 15.37731934 33.90322876 C13.85424005 33.90526827 12.3311345 33.89974622 10.80810547 33.88720703 C8.47694322 33.87115018 6.14751458 33.88705785 3.81640625 33.90625 C2.33593367 33.90426755 0.85546218 33.90042382 -0.625 33.89453125 C-1.3219397 33.90060394 -2.01887939 33.90667664 -2.73693848 33.91293335 C-5.49873571 33.87280138 -7.56867282 33.77326668 -9.96704102 32.33618164 C-12.44128832 28.05804402 -11.49715791 22.35436544 -11.46875 17.55859375 C-11.48873047 16.36556641 -11.50871094 15.17253906 -11.52929688 13.94335938 C-11.52865234 12.79673828 -11.52800781 11.65011719 -11.52734375 10.46875 C-11.52919678 9.41953369 -11.5310498 8.37031738 -11.53295898 7.28930664 C-11.03125 4.49609375 -11.03125 4.49609375 -9.43969727 2.15380859 C-6.17340649 -0.09435303 -3.94682636 -0.00584 0 0 Z " fill="#FDFDFD" transform="translate(338.03125,319.50390625)"/>
<path d="M0 0 C0.69891357 -0.00287018 1.39782715 -0.00574036 2.11791992 -0.00869751 C3.59392101 -0.01073675 5.06994921 -0.00521653 6.54589844 0.00732422 C8.80465138 0.0233817 11.06161518 0.0074728 13.3203125 -0.01171875 C14.75521228 -0.00973629 16.19011095 -0.00589256 17.625 0 C18.93082031 0.00338379 20.23664063 0.00676758 21.58203125 0.01025391 C24.8125 0.3984375 24.8125 0.3984375 26.73681641 1.52661133 C28.32616372 4.29227765 28.20155238 6.57146682 28.2109375 9.74609375 C28.21673828 11.61297852 28.21673828 11.61297852 28.22265625 13.51757812 C28.21105469 14.81888672 28.19945312 16.12019531 28.1875 17.4609375 C28.19910156 18.76611328 28.21070313 20.07128906 28.22265625 21.41601562 C28.21878906 22.65931641 28.21492188 23.90261719 28.2109375 25.18359375 C28.20755371 26.32707275 28.20416992 27.47055176 28.20068359 28.64868164 C28.07258301 29.55610107 27.94448242 30.46352051 27.8125 31.3984375 C22.85081068 34.70623038 16.89100234 33.73120515 11.07910156 33.71411133 C8.82047402 33.71094867 6.56315336 33.73442554 4.3046875 33.75976562 C2.86979332 33.76203844 1.43489562 33.7627422 0 33.76171875 C-1.30582031 33.76469971 -2.61164063 33.76768066 -3.95703125 33.77075195 C-7.1875 33.3984375 -7.1875 33.3984375 -9.11181641 32.2565918 C-10.67099753 29.56323556 -10.57637016 27.4045072 -10.5859375 24.3046875 C-10.58980469 23.10972656 -10.59367187 21.91476562 -10.59765625 20.68359375 C-10.58605469 19.43449219 -10.57445313 18.18539063 -10.5625 16.8984375 C-10.57410156 15.64933594 -10.58570312 14.40023438 -10.59765625 13.11328125 C-10.59378906 11.91832031 -10.58992188 10.72335937 -10.5859375 9.4921875 C-10.58255371 8.39583984 -10.57916992 7.29949219 -10.57568359 6.16992188 C-10.1875 3.3984375 -10.1875 3.3984375 -9.11181641 1.54248047 C-6.11501702 -0.23917418 -3.45741375 0.00895924 0 0 Z " fill="#FDFDFD" transform="translate(118.1875,270.6015625)"/>
<path d="M0 0 C0.69891357 -0.00287018 1.39782715 -0.00574036 2.11791992 -0.00869751 C3.59392101 -0.01073675 5.06994921 -0.00521653 6.54589844 0.00732422 C8.80465138 0.0233817 11.06161518 0.0074728 13.3203125 -0.01171875 C14.75521228 -0.00973629 16.19011095 -0.00589256 17.625 0 C18.93082031 0.00338379 20.23664063 0.00676758 21.58203125 0.01025391 C24.8125 0.3984375 24.8125 0.3984375 26.73681641 1.54248047 C28.29699242 4.23436837 28.20137299 6.39328726 28.2109375 9.4921875 C28.21673828 11.28462891 28.21673828 11.28462891 28.22265625 13.11328125 C28.21105469 14.36238281 28.19945312 15.61148437 28.1875 16.8984375 C28.19910156 18.14753906 28.21070313 19.39664062 28.22265625 20.68359375 C28.21878906 21.87855469 28.21492188 23.07351563 28.2109375 24.3046875 C28.20755371 25.40103516 28.20416992 26.49738281 28.20068359 27.62695312 C27.8125 30.3984375 27.8125 30.3984375 26.73681641 32.25439453 C23.74001702 34.03604918 21.08241375 33.78791576 17.625 33.796875 C16.92608643 33.79974518 16.22717285 33.80261536 15.50708008 33.80557251 C14.03107899 33.80761175 12.55505079 33.80209153 11.07910156 33.78955078 C8.82034862 33.7734933 6.56338482 33.7894022 4.3046875 33.80859375 C2.86978772 33.80661129 1.43488905 33.80276756 0 33.796875 C-1.30582031 33.79349121 -2.61164063 33.79010742 -3.95703125 33.78662109 C-7.1875 33.3984375 -7.1875 33.3984375 -9.11181641 32.25439453 C-10.67199242 29.56250663 -10.57637299 27.40358774 -10.5859375 24.3046875 C-10.58980469 23.10972656 -10.59367187 21.91476562 -10.59765625 20.68359375 C-10.58605469 19.43449219 -10.57445312 18.18539063 -10.5625 16.8984375 C-10.57410156 15.64933594 -10.58570313 14.40023438 -10.59765625 13.11328125 C-10.59378906 11.91832031 -10.58992188 10.72335937 -10.5859375 9.4921875 C-10.58255371 8.39583984 -10.57916992 7.29949219 -10.57568359 6.16992188 C-10.1875 3.3984375 -10.1875 3.3984375 -9.11181641 1.54248047 C-6.11501702 -0.23917418 -3.45741375 0.00895924 0 0 Z " fill="#FDFDFD" transform="translate(376.1875,270.6015625)"/>
<path d="M0 0 C0.70210098 0.00091141 1.40420197 0.00182281 2.12757874 0.00276184 C2.8501033 -0.00152328 3.57262787 -0.00580841 4.31704712 -0.01022339 C5.8460841 -0.01596928 7.37514843 -0.01646503 8.90419006 -0.01213074 C11.24410172 -0.00897362 13.58274565 -0.03241449 15.92250061 -0.05778503 C17.40752505 -0.0600583 18.8925529 -0.0607614 20.37757874 -0.05973816 C21.07765549 -0.06894791 21.77773224 -0.07815765 22.49902344 -0.08764648 C25.2710262 -0.06124565 27.34919647 0.02406734 29.7613678 1.45906067 C31.2720692 4.09372112 31.19082312 6.15171756 31.18226624 9.17854309 C31.1816217 10.32838684 31.18097717 11.47823059 31.18031311 12.66291809 C31.16419983 13.86432434 31.14808655 15.06573059 31.13148499 16.30354309 C31.13470764 17.50494934 31.1379303 18.70635559 31.14125061 19.94416809 C31.08601115 28.90300384 31.08601115 28.90300384 28.81898499 32.30354309 C26.21782942 32.59556033 23.85807347 32.69977659 21.25648499 32.66682434 C20.5093927 32.66732285 19.76230042 32.66782135 18.99256897 32.66833496 C17.41221966 32.66599332 15.83186671 32.6562594 14.25160217 32.63972473 C11.82841247 32.61613487 9.40632277 32.61916219 6.98304749 32.62580872 C5.44918674 32.62023195 3.91533064 32.61312208 2.38148499 32.60432434 C1.65437317 32.60523575 0.92726135 32.60614716 0.17811584 32.60708618 C-4.94998518 32.53457292 -4.94998518 32.53457292 -7.18101501 30.30354309 C-7.43980408 27.53791809 -7.43980408 27.53791809 -7.44664001 24.05354309 C-7.44921814 22.80573059 -7.45179626 21.55791809 -7.45445251 20.27229309 C-7.44671814 18.96260559 -7.43898376 17.65291809 -7.43101501 16.30354309 C-7.43874939 14.99385559 -7.44648376 13.68416809 -7.45445251 12.33479309 C-7.45187439 11.08698059 -7.44929626 9.83916809 -7.44664001 8.55354309 C-7.44438416 7.40369934 -7.4421283 6.25385559 -7.43980408 5.06916809 C-6.96776519 0.02458647 -4.51072086 0.06606162 0 0 Z " fill="#ECECEC" transform="translate(214.18101501464844,320.6964569091797)"/>
<path d="M0 0 C0.6998703 0.00091644 1.3997406 0.00183289 2.12081909 0.0027771 C3.59510104 0.00880264 5.06937135 0.0245175 6.54345703 0.04931641 C8.80416728 0.08592907 11.06324237 0.09033495 13.32421875 0.08984375 C24.38441515 0.16566515 24.38441515 0.16566515 26.6796875 2.4609375 C26.93847656 5.2265625 26.93847656 5.2265625 26.9453125 8.7109375 C26.94917969 10.58265625 26.94917969 10.58265625 26.953125 12.4921875 C26.94539063 13.801875 26.93765625 15.1115625 26.9296875 16.4609375 C26.94128906 18.42546875 26.94128906 18.42546875 26.953125 20.4296875 C26.95054687 21.6775 26.94796875 22.9253125 26.9453125 24.2109375 C26.94305664 25.36078125 26.94080078 26.510625 26.93847656 27.6953125 C26.6796875 30.4609375 26.6796875 30.4609375 24.6796875 32.4609375 C22.1224081 32.67272632 19.67605436 32.76492619 17.1171875 32.76171875 C16.37009521 32.76600388 15.62300293 32.770289 14.85327148 32.77470398 C13.27295954 32.78044963 11.69262114 32.7809458 10.11230469 32.77661133 C7.68899662 32.77344965 5.26690715 32.79691158 2.84375 32.82226562 C1.30989738 32.82453837 -0.22395854 32.82524223 -1.7578125 32.82421875 C-2.48492432 32.8334285 -3.21203613 32.84263824 -3.96118164 32.85212708 C-6.00390625 32.83325195 -6.00390625 32.83325195 -9.3203125 32.4609375 C-12.49421863 27.70007831 -11.68903315 22.62148025 -11.6953125 17.0234375 C-11.71980469 15.87810547 -11.74429687 14.73277344 -11.76953125 13.55273438 C-11.77339844 12.45123047 -11.77726562 11.34972656 -11.78125 10.21484375 C-11.78946777 9.20752197 -11.79768555 8.2002002 -11.80615234 7.16235352 C-11.3203125 4.4609375 -11.3203125 4.4609375 -9.74902344 2.13012695 C-6.39687059 -0.17371995 -4.04624263 -0.02544179 0 0 Z " fill="#ECECEC" transform="translate(278.3203125,320.5390625)"/>
<path d="M0 0 C2.5270025 1.09599161 4.25702519 2.5011361 6.3125 4.33203125 C7.01890625 4.94949219 7.7253125 5.56695312 8.453125 6.203125 C10.0625 7.89453125 10.0625 7.89453125 10.0625 9.89453125 C-8.49021807 26.32510132 -33.67400447 33.84164118 -56.9375 40.89453125 C-57.84338867 41.16974609 -58.74927734 41.44496094 -59.68261719 41.72851562 C-67.25423689 43.9744654 -74.10426479 45.85284005 -81.9375 43.89453125 C-84.5 42.33203125 -84.5 42.33203125 -85.9375 40.89453125 C-84.98105638 38.4160053 -84.39878909 37.15080297 -82.0390625 35.83984375 C-81.22179687 35.56914062 -80.40453125 35.2984375 -79.5625 35.01953125 C-78.56476563 34.68308594 -77.56703125 34.34664062 -76.5390625 34 C-73.93467563 33.20060577 -71.332424 32.43352029 -68.7109375 31.6953125 C-33.2763891 21.71174125 -33.2763891 21.71174125 -3.515625 1.01171875 C-1.9375 -0.10546875 -1.9375 -0.10546875 0 0 Z " fill="#F6F9FE" transform="translate(265.9375,199.10546875)"/>
<path d="M0 0 C1.60546875 1.86328125 1.60546875 1.86328125 3.1875 4.3125 C3.71730469 5.11300781 4.24710937 5.91351563 4.79296875 6.73828125 C6 9 6 9 6 12 C3.8563829 13.56151418 1.7936508 14.8795457 -0.5 16.1875 C-1.18070557 16.58187256 -1.86141113 16.97624512 -2.56274414 17.38256836 C-4.69909111 18.60596329 -6.84730128 19.80565049 -9 21 C-9.62503418 21.35288086 -10.25006836 21.70576172 -10.89404297 22.06933594 C-32.35775965 34.05310052 -53.83773481 40.84907861 -78 35 C-75.10294895 33.06863264 -73.0649892 32.31199204 -69.7578125 31.37109375 C-68.70190918 31.06308838 -67.64600586 30.75508301 -66.55810547 30.43774414 C-65.42518066 30.10766357 -64.29225586 29.77758301 -63.125 29.4375 C-42.68928375 23.29774152 -21.06784123 15.39669545 -4.69921875 1.21484375 C-3 0 -3 0 0 0 Z " fill="#E9F0FE" transform="translate(286,217)"/>
<path d="M0 0 C22.5266311 -0.58235358 45.94625557 0.37080914 65 14 C65.68320312 14.47695312 66.36640625 14.95390625 67.0703125 15.4453125 C77.39893822 23.50569101 83.02041828 35.54960494 86 48 C86.19464844 48.64195312 86.38929688 49.28390625 86.58984375 49.9453125 C87.17851076 52.8942539 87.09252529 55.74747091 87.0625 58.75 C87.05347656 59.92046875 87.04445313 61.0909375 87.03515625 62.296875 C87.02355469 63.18890625 87.01195312 64.0809375 87 65 C86.67 65 86.34 65 86 65 C85.78085937 64.18917969 85.56171875 63.37835938 85.3359375 62.54296875 C81.67609365 49.76327011 76.40242177 40.41860494 67 31 C66.07767578 30.06027344 66.07767578 30.06027344 65.13671875 29.1015625 C49.11307756 13.93571795 24.26578867 6.07759306 2.94238281 2.53613281 C2.30139648 2.35920898 1.66041016 2.18228516 1 2 C0.67 1.34 0.34 0.68 0 0 Z " fill="#F3F7FD" transform="translate(252,131)"/>
<path d="M0 0 C4.00273319 1.3459278 6.3335922 3.0369656 9.3125 6 C16.24998134 12.46518685 24.519289 17.7596445 33 22 C33 22.66 33 23.32 33 24 C28.64009127 24.07418046 24.28051721 24.12861544 19.92016602 24.16479492 C18.43702801 24.17987768 16.95393456 24.20034689 15.47094727 24.22631836 C13.33859255 24.26272616 11.20682765 24.27973073 9.07421875 24.29296875 C7.79119873 24.3086792 6.50817871 24.32438965 5.1862793 24.34057617 C2 24 2 24 0.07836914 22.67602539 C-1.67164617 19.95611253 -1.31823912 17.42994301 -1.25 14.25 C-1.22421875 13.00476563 -1.1984375 11.75953125 -1.171875 10.4765625 C-0.99519565 6.90282107 -0.668705 3.51070125 0 0 Z " fill="#BEBEC0" transform="translate(169,280)"/>
<path d="M0 0 C0.67777494 5.47061198 1.11572278 10.92542032 1.25 16.4375 C1.27578125 17.42621094 1.3015625 18.41492188 1.328125 19.43359375 C1 22 1 22 -0.09204102 23.64208984 C-2.97103104 25.6910908 -5.35927563 25.33722436 -8.85546875 25.29296875 C-9.51710526 25.28872391 -10.17874176 25.28447906 -10.86042786 25.28010559 C-12.9698691 25.26333693 -15.07834846 25.22569099 -17.1875 25.1875 C-18.61912681 25.17245068 -20.05076862 25.1587627 -21.48242188 25.14648438 C-24.98859288 25.1134403 -28.49420254 25.06167167 -32 25 C-30.64263276 20.92789827 -28.74656513 20.43180468 -25.0625 18.3125 C-17.37785584 13.77109317 -10.68368979 8.32936481 -3.9375 2.5 C-1 0 -1 0 0 0 Z " fill="#BEBFC0" transform="translate(343,279)"/>
<path d="M0 0 C2.21854707 4.62197306 3.38281159 7.76824163 3 13 C-9.70896773 18.43094716 -21.60454001 21.19196615 -35.4375 21.0625 C-36.35982422 21.05798828 -37.28214844 21.05347656 -38.23242188 21.04882812 C-40.48835048 21.03713938 -42.74413967 21.02075455 -45 21 C-42.5267929 19.35119526 -40.65792289 18.39287362 -37.9296875 17.37109375 C-37.12329834 17.06252441 -36.31690918 16.75395508 -35.48608398 16.43603516 C-34.62442627 16.10651855 -33.76276855 15.77700195 -32.875 15.4375 C-24.22910188 12.06422112 -8.59688622 0 0 0 Z " fill="#DBE7FD" transform="translate(298,238)"/>
<path d="M0 0 C0.80179687 0.00451172 1.60359375 0.00902344 2.4296875 0.01367188 C4.41149006 0.02546832 6.39325433 0.04340395 8.375 0.0625 C8.375 0.3925 8.375 0.7225 8.375 1.0625 C7.26640625 1.09988281 6.1578125 1.13726562 5.015625 1.17578125 C3.55205026 1.24145448 2.08851009 1.30790135 0.625 1.375 C-0.10460937 1.39755859 -0.83421875 1.42011719 -1.5859375 1.44335938 C-5.83070619 1.65559781 -8.538858 2.03320799 -11.625 5.0625 C-11.25 3.125 -11.25 3.125 -10.625 1.0625 C-7.31505287 -0.59247356 -3.63377 -0.03834335 0 0 Z " fill="#A8A9AC" transform="translate(278.625,319.9375)"/>
</svg>
