<svg xmlns="http://www.w3.org/2000/svg" aria-hidden="true">
  <symbol id="team" viewBox="0 0 24 24">
    <g fill="none" stroke="currentColor" stroke-width="1.6" stroke-linecap="round" stroke-linejoin="round">
      <path d="M12 11a3 3 0 1 1 3-3 3 3 0 0 1-3 3Z" />
      <path d="M7 10.5a2.2 2.2 0 1 1 2.2-2.2A2.2 2.2 0 0 1 7 10.5Z" />
      <path d="M17 10.5a2.2 2.2 0 1 1 2.2-2.2A2.2 2.2 0 0 1 17 10.5Z" />
      <path d="M6.5 17.5a4.5 4.5 0 0 1 4.5-3h2a4.5 4.5 0 0 1 4.5 3" />
      <path d="M3.5 17.5a3.5 3.5 0 0 1 3.5-2.5" />
      <path d="M17.5 15a3.5 3.5 0 0 1 3 2.5" />
    </g>
  </symbol>
</svg>
